<mxfile host="app.diagrams.net" modified="2023-04-10T00:07:42.824Z" agent="Mozilla/5.0 (Windows NT 10.0; Win64; x64) AppleWebKit/537.36 (KHTML, like Gecko) Chrome/112.0.0.0 Safari/537.36" etag="oGkGGGDlThd-abHjpgQM" version="21.1.5" type="device">
  <diagram name="Pagina-1" id="Z46OItUbSqwlyue6e_NY">
    <mxGraphModel dx="2114" dy="724" grid="1" gridSize="10" guides="1" tooltips="1" connect="1" arrows="1" fold="1" page="1" pageScale="1" pageWidth="827" pageHeight="1169" math="0" shadow="0">
      <root>
        <mxCell id="0" />
        <mxCell id="1" parent="0" />
        <mxCell id="gXBOJigTvJf-tN6301ke-1" value="&lt;b&gt;&lt;font style=&quot;font-size: 16px;&quot;&gt;POWER DISTRIBUTION BOARD&lt;/font&gt;&lt;/b&gt;" style="rounded=0;whiteSpace=wrap;html=1;fillColor=none;" vertex="1" parent="1">
          <mxGeometry x="240" y="160" width="380" height="180" as="geometry" />
        </mxCell>
        <mxCell id="gXBOJigTvJf-tN6301ke-2" value="14.8V+" style="text;html=1;strokeColor=none;fillColor=none;align=center;verticalAlign=middle;whiteSpace=wrap;rounded=0;" vertex="1" parent="1">
          <mxGeometry x="450" y="310" width="60" height="30" as="geometry" />
        </mxCell>
        <mxCell id="gXBOJigTvJf-tN6301ke-3" value="14.8V-" style="text;html=1;strokeColor=none;fillColor=none;align=center;verticalAlign=middle;whiteSpace=wrap;rounded=0;" vertex="1" parent="1">
          <mxGeometry x="350" y="310" width="60" height="30" as="geometry" />
        </mxCell>
        <mxCell id="gXBOJigTvJf-tN6301ke-4" value="" style="pointerEvents=1;verticalLabelPosition=bottom;shadow=0;dashed=0;align=center;html=1;verticalAlign=top;shape=mxgraph.electrical.miscellaneous.batteryStack;" vertex="1" parent="1">
          <mxGeometry x="380" y="349" width="100" height="60" as="geometry" />
        </mxCell>
        <mxCell id="gXBOJigTvJf-tN6301ke-5" value="" style="endArrow=none;html=1;rounded=0;exitX=1;exitY=0.5;exitDx=0;exitDy=0;entryX=0.5;entryY=1;entryDx=0;entryDy=0;" edge="1" parent="1" source="gXBOJigTvJf-tN6301ke-4" target="gXBOJigTvJf-tN6301ke-2">
          <mxGeometry width="50" height="50" relative="1" as="geometry">
            <mxPoint x="390" y="260" as="sourcePoint" />
            <mxPoint x="440" y="210" as="targetPoint" />
          </mxGeometry>
        </mxCell>
        <mxCell id="gXBOJigTvJf-tN6301ke-7" value="" style="endArrow=none;html=1;rounded=0;exitX=0;exitY=0.5;exitDx=0;exitDy=0;entryX=0.5;entryY=1;entryDx=0;entryDy=0;" edge="1" parent="1" source="gXBOJigTvJf-tN6301ke-4" target="gXBOJigTvJf-tN6301ke-3">
          <mxGeometry width="50" height="50" relative="1" as="geometry">
            <mxPoint x="390" y="260" as="sourcePoint" />
            <mxPoint x="440" y="210" as="targetPoint" />
          </mxGeometry>
        </mxCell>
        <mxCell id="gXBOJigTvJf-tN6301ke-8" value="4SLi-Po battery" style="text;html=1;strokeColor=none;fillColor=none;align=center;verticalAlign=middle;whiteSpace=wrap;rounded=0;fontSize=16;fontStyle=1" vertex="1" parent="1">
          <mxGeometry x="411" y="412" width="70" height="30" as="geometry" />
        </mxCell>
        <mxCell id="gXBOJigTvJf-tN6301ke-13" value="14.8V+" style="text;html=1;strokeColor=none;fillColor=none;align=center;verticalAlign=middle;whiteSpace=wrap;rounded=0;" vertex="1" parent="1">
          <mxGeometry x="241" y="190" width="60" height="30" as="geometry" />
        </mxCell>
        <mxCell id="gXBOJigTvJf-tN6301ke-14" value="14.8V-" style="text;html=1;strokeColor=none;fillColor=none;align=center;verticalAlign=middle;whiteSpace=wrap;rounded=0;" vertex="1" parent="1">
          <mxGeometry x="240" y="160" width="60" height="30" as="geometry" />
        </mxCell>
        <mxCell id="gXBOJigTvJf-tN6301ke-15" value="14.8V+" style="text;html=1;strokeColor=none;fillColor=none;align=center;verticalAlign=middle;whiteSpace=wrap;rounded=0;" vertex="1" parent="1">
          <mxGeometry x="560" y="190" width="60" height="30" as="geometry" />
        </mxCell>
        <mxCell id="gXBOJigTvJf-tN6301ke-16" value="14.8V-" style="text;html=1;strokeColor=none;fillColor=none;align=center;verticalAlign=middle;whiteSpace=wrap;rounded=0;" vertex="1" parent="1">
          <mxGeometry x="560" y="160" width="60" height="30" as="geometry" />
        </mxCell>
        <mxCell id="gXBOJigTvJf-tN6301ke-17" value="14.8V+" style="text;html=1;strokeColor=none;fillColor=none;align=center;verticalAlign=middle;whiteSpace=wrap;rounded=0;" vertex="1" parent="1">
          <mxGeometry x="560" y="310" width="60" height="30" as="geometry" />
        </mxCell>
        <mxCell id="gXBOJigTvJf-tN6301ke-18" value="14.8V-" style="text;html=1;strokeColor=none;fillColor=none;align=center;verticalAlign=middle;whiteSpace=wrap;rounded=0;" vertex="1" parent="1">
          <mxGeometry x="560" y="280" width="60" height="30" as="geometry" />
        </mxCell>
        <mxCell id="gXBOJigTvJf-tN6301ke-21" value="14.8V+" style="text;html=1;strokeColor=none;fillColor=none;align=center;verticalAlign=middle;whiteSpace=wrap;rounded=0;" vertex="1" parent="1">
          <mxGeometry x="240" y="310" width="60" height="30" as="geometry" />
        </mxCell>
        <mxCell id="gXBOJigTvJf-tN6301ke-22" value="14.8V-" style="text;html=1;strokeColor=none;fillColor=none;align=center;verticalAlign=middle;whiteSpace=wrap;rounded=0;" vertex="1" parent="1">
          <mxGeometry x="240" y="280" width="60" height="30" as="geometry" />
        </mxCell>
        <mxCell id="gXBOJigTvJf-tN6301ke-23" value="&lt;b&gt;ESC1&lt;/b&gt;" style="rounded=0;whiteSpace=wrap;html=1;fillColor=none;" vertex="1" parent="1">
          <mxGeometry x="70" y="160" width="120" height="60" as="geometry" />
        </mxCell>
        <mxCell id="gXBOJigTvJf-tN6301ke-24" value="&lt;b&gt;ESC2&lt;/b&gt;" style="rounded=0;whiteSpace=wrap;html=1;fillColor=none;" vertex="1" parent="1">
          <mxGeometry x="670" y="160" width="120" height="60" as="geometry" />
        </mxCell>
        <mxCell id="gXBOJigTvJf-tN6301ke-25" value="&lt;b&gt;ESC3&lt;/b&gt;" style="rounded=0;whiteSpace=wrap;html=1;fillColor=none;" vertex="1" parent="1">
          <mxGeometry x="670" y="280" width="120" height="60" as="geometry" />
        </mxCell>
        <mxCell id="gXBOJigTvJf-tN6301ke-26" value="&lt;b&gt;ESC4&lt;/b&gt;" style="rounded=0;whiteSpace=wrap;html=1;fillColor=none;" vertex="1" parent="1">
          <mxGeometry x="70" y="280" width="120" height="60" as="geometry" />
        </mxCell>
        <mxCell id="gXBOJigTvJf-tN6301ke-27" value="" style="endArrow=none;html=1;rounded=0;exitX=1;exitY=0.25;exitDx=0;exitDy=0;entryX=0;entryY=0.5;entryDx=0;entryDy=0;" edge="1" parent="1" source="gXBOJigTvJf-tN6301ke-23" target="gXBOJigTvJf-tN6301ke-14">
          <mxGeometry width="50" height="50" relative="1" as="geometry">
            <mxPoint x="390" y="250" as="sourcePoint" />
            <mxPoint x="440" y="200" as="targetPoint" />
          </mxGeometry>
        </mxCell>
        <mxCell id="gXBOJigTvJf-tN6301ke-28" value="" style="endArrow=none;html=1;rounded=0;exitX=1;exitY=0.75;exitDx=0;exitDy=0;" edge="1" parent="1" source="gXBOJigTvJf-tN6301ke-23">
          <mxGeometry width="50" height="50" relative="1" as="geometry">
            <mxPoint x="390" y="250" as="sourcePoint" />
            <mxPoint x="240" y="205" as="targetPoint" />
          </mxGeometry>
        </mxCell>
        <mxCell id="gXBOJigTvJf-tN6301ke-29" value="" style="endArrow=none;html=1;rounded=0;exitX=1;exitY=0.25;exitDx=0;exitDy=0;entryX=0;entryY=0.5;entryDx=0;entryDy=0;" edge="1" parent="1">
          <mxGeometry width="50" height="50" relative="1" as="geometry">
            <mxPoint x="190" y="294" as="sourcePoint" />
            <mxPoint x="240" y="294" as="targetPoint" />
          </mxGeometry>
        </mxCell>
        <mxCell id="gXBOJigTvJf-tN6301ke-30" value="" style="endArrow=none;html=1;rounded=0;exitX=1;exitY=0.75;exitDx=0;exitDy=0;" edge="1" parent="1">
          <mxGeometry width="50" height="50" relative="1" as="geometry">
            <mxPoint x="190" y="324" as="sourcePoint" />
            <mxPoint x="240" y="324" as="targetPoint" />
          </mxGeometry>
        </mxCell>
        <mxCell id="gXBOJigTvJf-tN6301ke-31" value="" style="endArrow=none;html=1;rounded=0;exitX=1;exitY=0.25;exitDx=0;exitDy=0;entryX=0;entryY=0.5;entryDx=0;entryDy=0;" edge="1" parent="1">
          <mxGeometry width="50" height="50" relative="1" as="geometry">
            <mxPoint x="620" y="174.5" as="sourcePoint" />
            <mxPoint x="670" y="174.5" as="targetPoint" />
          </mxGeometry>
        </mxCell>
        <mxCell id="gXBOJigTvJf-tN6301ke-32" value="" style="endArrow=none;html=1;rounded=0;exitX=1;exitY=0.75;exitDx=0;exitDy=0;" edge="1" parent="1">
          <mxGeometry width="50" height="50" relative="1" as="geometry">
            <mxPoint x="620" y="204.5" as="sourcePoint" />
            <mxPoint x="670" y="204.5" as="targetPoint" />
          </mxGeometry>
        </mxCell>
        <mxCell id="gXBOJigTvJf-tN6301ke-33" value="" style="endArrow=none;html=1;rounded=0;exitX=1;exitY=0.25;exitDx=0;exitDy=0;entryX=0;entryY=0.5;entryDx=0;entryDy=0;" edge="1" parent="1">
          <mxGeometry width="50" height="50" relative="1" as="geometry">
            <mxPoint x="620" y="294.5" as="sourcePoint" />
            <mxPoint x="670" y="294.5" as="targetPoint" />
          </mxGeometry>
        </mxCell>
        <mxCell id="gXBOJigTvJf-tN6301ke-34" value="" style="endArrow=none;html=1;rounded=0;exitX=1;exitY=0.75;exitDx=0;exitDy=0;" edge="1" parent="1">
          <mxGeometry width="50" height="50" relative="1" as="geometry">
            <mxPoint x="620" y="324.5" as="sourcePoint" />
            <mxPoint x="670" y="324.5" as="targetPoint" />
          </mxGeometry>
        </mxCell>
        <mxCell id="gXBOJigTvJf-tN6301ke-35" value="&lt;b&gt;M1&lt;/b&gt;" style="ellipse;whiteSpace=wrap;html=1;aspect=fixed;" vertex="1" parent="1">
          <mxGeometry x="105" y="60" width="50" height="50" as="geometry" />
        </mxCell>
        <mxCell id="gXBOJigTvJf-tN6301ke-36" value="&lt;b&gt;M2&lt;/b&gt;" style="ellipse;whiteSpace=wrap;html=1;aspect=fixed;" vertex="1" parent="1">
          <mxGeometry x="705" y="60" width="50" height="50" as="geometry" />
        </mxCell>
        <mxCell id="gXBOJigTvJf-tN6301ke-38" value="&lt;b&gt;M3&lt;/b&gt;" style="ellipse;whiteSpace=wrap;html=1;aspect=fixed;" vertex="1" parent="1">
          <mxGeometry x="705" y="390" width="50" height="50" as="geometry" />
        </mxCell>
        <mxCell id="gXBOJigTvJf-tN6301ke-39" value="" style="endArrow=none;html=1;rounded=0;exitX=0.5;exitY=0;exitDx=0;exitDy=0;entryX=0.5;entryY=1;entryDx=0;entryDy=0;" edge="1" parent="1" source="gXBOJigTvJf-tN6301ke-23" target="gXBOJigTvJf-tN6301ke-35">
          <mxGeometry width="50" height="50" relative="1" as="geometry">
            <mxPoint x="390" y="150" as="sourcePoint" />
            <mxPoint x="440" y="100" as="targetPoint" />
          </mxGeometry>
        </mxCell>
        <mxCell id="gXBOJigTvJf-tN6301ke-40" value="M1 Signal" style="text;html=1;strokeColor=none;fillColor=none;align=center;verticalAlign=middle;whiteSpace=wrap;rounded=0;rotation=-90;fontSize=9;" vertex="1" parent="1">
          <mxGeometry x="110" y="130" width="60" height="10" as="geometry" />
        </mxCell>
        <mxCell id="gXBOJigTvJf-tN6301ke-42" value="" style="endArrow=none;html=1;rounded=0;exitX=0.5;exitY=0;exitDx=0;exitDy=0;entryX=0.5;entryY=1;entryDx=0;entryDy=0;" edge="1" parent="1">
          <mxGeometry width="50" height="50" relative="1" as="geometry">
            <mxPoint x="730" y="160" as="sourcePoint" />
            <mxPoint x="730" y="110" as="targetPoint" />
          </mxGeometry>
        </mxCell>
        <mxCell id="gXBOJigTvJf-tN6301ke-43" value="M2 Signal" style="text;html=1;strokeColor=none;fillColor=none;align=center;verticalAlign=middle;whiteSpace=wrap;rounded=0;rotation=-90;fontSize=9;" vertex="1" parent="1">
          <mxGeometry x="710" y="130" width="60" height="10" as="geometry" />
        </mxCell>
        <mxCell id="gXBOJigTvJf-tN6301ke-44" value="" style="endArrow=none;html=1;rounded=0;exitX=0.5;exitY=0;exitDx=0;exitDy=0;entryX=0.5;entryY=1;entryDx=0;entryDy=0;" edge="1" parent="1">
          <mxGeometry width="50" height="50" relative="1" as="geometry">
            <mxPoint x="130" y="390" as="sourcePoint" />
            <mxPoint x="130" y="340" as="targetPoint" />
          </mxGeometry>
        </mxCell>
        <mxCell id="gXBOJigTvJf-tN6301ke-45" value="M4 Signal" style="text;html=1;strokeColor=none;fillColor=none;align=center;verticalAlign=middle;whiteSpace=wrap;rounded=0;rotation=-90;fontSize=9;" vertex="1" parent="1">
          <mxGeometry x="110" y="360" width="60" height="10" as="geometry" />
        </mxCell>
        <mxCell id="gXBOJigTvJf-tN6301ke-46" value="" style="endArrow=none;html=1;rounded=0;exitX=0.5;exitY=0;exitDx=0;exitDy=0;entryX=0.5;entryY=1;entryDx=0;entryDy=0;" edge="1" parent="1">
          <mxGeometry width="50" height="50" relative="1" as="geometry">
            <mxPoint x="730" y="390" as="sourcePoint" />
            <mxPoint x="730" y="340" as="targetPoint" />
          </mxGeometry>
        </mxCell>
        <mxCell id="gXBOJigTvJf-tN6301ke-47" value="M3 Signal" style="text;html=1;strokeColor=none;fillColor=none;align=center;verticalAlign=middle;whiteSpace=wrap;rounded=0;rotation=-90;fontSize=9;" vertex="1" parent="1">
          <mxGeometry x="710" y="360" width="60" height="10" as="geometry" />
        </mxCell>
        <mxCell id="gXBOJigTvJf-tN6301ke-48" value="&lt;b&gt;M4&lt;/b&gt;" style="ellipse;whiteSpace=wrap;html=1;aspect=fixed;" vertex="1" parent="1">
          <mxGeometry x="105" y="390" width="50" height="50" as="geometry" />
        </mxCell>
        <mxCell id="gXBOJigTvJf-tN6301ke-49" value="" style="endArrow=none;html=1;rounded=0;exitX=0.25;exitY=0;exitDx=0;exitDy=0;entryX=0;entryY=0.5;entryDx=0;entryDy=0;" edge="1" parent="1" source="gXBOJigTvJf-tN6301ke-23" target="gXBOJigTvJf-tN6301ke-35">
          <mxGeometry width="50" height="50" relative="1" as="geometry">
            <mxPoint x="390" y="250" as="sourcePoint" />
            <mxPoint x="440" y="200" as="targetPoint" />
            <Array as="points">
              <mxPoint x="100" y="140" />
              <mxPoint x="80" y="140" />
              <mxPoint x="80" y="85" />
            </Array>
          </mxGeometry>
        </mxCell>
        <mxCell id="gXBOJigTvJf-tN6301ke-51" value="" style="endArrow=none;html=1;rounded=0;exitX=1;exitY=0.5;exitDx=0;exitDy=0;entryX=0.75;entryY=0;entryDx=0;entryDy=0;" edge="1" parent="1" source="gXBOJigTvJf-tN6301ke-35" target="gXBOJigTvJf-tN6301ke-23">
          <mxGeometry width="50" height="50" relative="1" as="geometry">
            <mxPoint x="390" y="250" as="sourcePoint" />
            <mxPoint x="440" y="200" as="targetPoint" />
            <Array as="points">
              <mxPoint x="180" y="85" />
              <mxPoint x="180" y="140" />
              <mxPoint x="160" y="140" />
            </Array>
          </mxGeometry>
        </mxCell>
        <mxCell id="gXBOJigTvJf-tN6301ke-52" value="ESC1Vout+/M1Vin+" style="text;html=1;strokeColor=none;fillColor=none;align=center;verticalAlign=middle;whiteSpace=wrap;rounded=0;rotation=-90;fontSize=9;" vertex="1" parent="1">
          <mxGeometry x="160" y="110" width="60" height="10" as="geometry" />
        </mxCell>
        <mxCell id="gXBOJigTvJf-tN6301ke-53" value="ESC1Vout-/M1Vin-" style="text;html=1;strokeColor=none;fillColor=none;align=center;verticalAlign=middle;whiteSpace=wrap;rounded=0;rotation=-90;fontSize=9;" vertex="1" parent="1">
          <mxGeometry x="40" y="110" width="60" height="10" as="geometry" />
        </mxCell>
        <mxCell id="gXBOJigTvJf-tN6301ke-54" value="" style="endArrow=none;html=1;rounded=0;exitX=0.25;exitY=0;exitDx=0;exitDy=0;entryX=0;entryY=0.5;entryDx=0;entryDy=0;" edge="1" parent="1">
          <mxGeometry width="50" height="50" relative="1" as="geometry">
            <mxPoint x="700" y="160" as="sourcePoint" />
            <mxPoint x="705" y="85" as="targetPoint" />
            <Array as="points">
              <mxPoint x="700" y="140" />
              <mxPoint x="680" y="140" />
              <mxPoint x="680" y="85" />
            </Array>
          </mxGeometry>
        </mxCell>
        <mxCell id="gXBOJigTvJf-tN6301ke-55" value="" style="endArrow=none;html=1;rounded=0;exitX=1;exitY=0.5;exitDx=0;exitDy=0;entryX=0.75;entryY=0;entryDx=0;entryDy=0;" edge="1" parent="1">
          <mxGeometry width="50" height="50" relative="1" as="geometry">
            <mxPoint x="755" y="85" as="sourcePoint" />
            <mxPoint x="760" y="160" as="targetPoint" />
            <Array as="points">
              <mxPoint x="780" y="85" />
              <mxPoint x="780" y="140" />
              <mxPoint x="760" y="140" />
            </Array>
          </mxGeometry>
        </mxCell>
        <mxCell id="gXBOJigTvJf-tN6301ke-56" value="ESC2Vout+/M2Vin+" style="text;html=1;strokeColor=none;fillColor=none;align=center;verticalAlign=middle;whiteSpace=wrap;rounded=0;rotation=-90;fontSize=9;" vertex="1" parent="1">
          <mxGeometry x="760" y="110" width="60" height="10" as="geometry" />
        </mxCell>
        <mxCell id="gXBOJigTvJf-tN6301ke-57" value="ESC2Vout-/M2Vin-" style="text;html=1;strokeColor=none;fillColor=none;align=center;verticalAlign=middle;whiteSpace=wrap;rounded=0;rotation=-90;fontSize=9;" vertex="1" parent="1">
          <mxGeometry x="640" y="110" width="60" height="10" as="geometry" />
        </mxCell>
        <mxCell id="gXBOJigTvJf-tN6301ke-58" value="" style="endArrow=none;html=1;rounded=0;exitX=0;exitY=0.5;exitDx=0;exitDy=0;entryX=0.25;entryY=1;entryDx=0;entryDy=0;" edge="1" parent="1" source="gXBOJigTvJf-tN6301ke-48" target="gXBOJigTvJf-tN6301ke-26">
          <mxGeometry width="50" height="50" relative="1" as="geometry">
            <mxPoint x="390" y="250" as="sourcePoint" />
            <mxPoint x="440" y="200" as="targetPoint" />
            <Array as="points">
              <mxPoint x="80" y="415" />
              <mxPoint x="80" y="360" />
              <mxPoint x="100" y="360" />
            </Array>
          </mxGeometry>
        </mxCell>
        <mxCell id="gXBOJigTvJf-tN6301ke-60" value="" style="endArrow=none;html=1;rounded=0;exitX=1;exitY=0.5;exitDx=0;exitDy=0;entryX=0.75;entryY=1;entryDx=0;entryDy=0;" edge="1" parent="1" source="gXBOJigTvJf-tN6301ke-48" target="gXBOJigTvJf-tN6301ke-26">
          <mxGeometry width="50" height="50" relative="1" as="geometry">
            <mxPoint x="390" y="250" as="sourcePoint" />
            <mxPoint x="440" y="200" as="targetPoint" />
            <Array as="points">
              <mxPoint x="180" y="415" />
              <mxPoint x="180" y="360" />
              <mxPoint x="160" y="360" />
            </Array>
          </mxGeometry>
        </mxCell>
        <mxCell id="gXBOJigTvJf-tN6301ke-61" value="ESC4Vout+/M4Vin+" style="text;html=1;strokeColor=none;fillColor=none;align=center;verticalAlign=middle;whiteSpace=wrap;rounded=0;rotation=-90;fontSize=9;" vertex="1" parent="1">
          <mxGeometry x="160" y="380" width="60" height="10" as="geometry" />
        </mxCell>
        <mxCell id="gXBOJigTvJf-tN6301ke-62" value="ESC4Vout-/M4Vin-" style="text;html=1;strokeColor=none;fillColor=none;align=center;verticalAlign=middle;whiteSpace=wrap;rounded=0;rotation=-90;fontSize=9;" vertex="1" parent="1">
          <mxGeometry x="40" y="380" width="60" height="10" as="geometry" />
        </mxCell>
        <mxCell id="gXBOJigTvJf-tN6301ke-63" value="" style="endArrow=none;html=1;rounded=0;exitX=0;exitY=0.5;exitDx=0;exitDy=0;entryX=0.25;entryY=1;entryDx=0;entryDy=0;" edge="1" parent="1">
          <mxGeometry width="50" height="50" relative="1" as="geometry">
            <mxPoint x="705" y="415" as="sourcePoint" />
            <mxPoint x="700" y="340" as="targetPoint" />
            <Array as="points">
              <mxPoint x="680" y="415" />
              <mxPoint x="680" y="360" />
              <mxPoint x="700" y="360" />
            </Array>
          </mxGeometry>
        </mxCell>
        <mxCell id="gXBOJigTvJf-tN6301ke-64" value="" style="endArrow=none;html=1;rounded=0;exitX=1;exitY=0.5;exitDx=0;exitDy=0;entryX=0.75;entryY=1;entryDx=0;entryDy=0;" edge="1" parent="1">
          <mxGeometry width="50" height="50" relative="1" as="geometry">
            <mxPoint x="755" y="415" as="sourcePoint" />
            <mxPoint x="760" y="340" as="targetPoint" />
            <Array as="points">
              <mxPoint x="780" y="415" />
              <mxPoint x="780" y="360" />
              <mxPoint x="760" y="360" />
            </Array>
          </mxGeometry>
        </mxCell>
        <mxCell id="gXBOJigTvJf-tN6301ke-65" value="ESC3Vout+/M3Vin+" style="text;html=1;strokeColor=none;fillColor=none;align=center;verticalAlign=middle;whiteSpace=wrap;rounded=0;rotation=-90;fontSize=9;" vertex="1" parent="1">
          <mxGeometry x="760" y="380" width="60" height="10" as="geometry" />
        </mxCell>
        <mxCell id="gXBOJigTvJf-tN6301ke-66" value="ESC3Vout-/M3Vin-" style="text;html=1;strokeColor=none;fillColor=none;align=center;verticalAlign=middle;whiteSpace=wrap;rounded=0;rotation=-90;fontSize=9;" vertex="1" parent="1">
          <mxGeometry x="640" y="380" width="60" height="10" as="geometry" />
        </mxCell>
        <mxCell id="gXBOJigTvJf-tN6301ke-67" value="Vin-" style="text;html=1;strokeColor=none;fillColor=none;align=center;verticalAlign=middle;whiteSpace=wrap;rounded=0;" vertex="1" parent="1">
          <mxGeometry x="140" y="160" width="60" height="30" as="geometry" />
        </mxCell>
        <mxCell id="gXBOJigTvJf-tN6301ke-68" value="Vin+" style="text;html=1;strokeColor=none;fillColor=none;align=center;verticalAlign=middle;whiteSpace=wrap;rounded=0;" vertex="1" parent="1">
          <mxGeometry x="140" y="190" width="60" height="30" as="geometry" />
        </mxCell>
        <mxCell id="gXBOJigTvJf-tN6301ke-69" value="Vin-" style="text;html=1;strokeColor=none;fillColor=none;align=center;verticalAlign=middle;whiteSpace=wrap;rounded=0;" vertex="1" parent="1">
          <mxGeometry x="140" y="280" width="60" height="30" as="geometry" />
        </mxCell>
        <mxCell id="gXBOJigTvJf-tN6301ke-70" value="Vin+" style="text;html=1;strokeColor=none;fillColor=none;align=center;verticalAlign=middle;whiteSpace=wrap;rounded=0;" vertex="1" parent="1">
          <mxGeometry x="140" y="310" width="60" height="30" as="geometry" />
        </mxCell>
        <mxCell id="gXBOJigTvJf-tN6301ke-71" value="Vin-" style="text;html=1;strokeColor=none;fillColor=none;align=center;verticalAlign=middle;whiteSpace=wrap;rounded=0;" vertex="1" parent="1">
          <mxGeometry x="660" y="160" width="60" height="30" as="geometry" />
        </mxCell>
        <mxCell id="gXBOJigTvJf-tN6301ke-72" value="Vin+" style="text;html=1;strokeColor=none;fillColor=none;align=center;verticalAlign=middle;whiteSpace=wrap;rounded=0;" vertex="1" parent="1">
          <mxGeometry x="660" y="190" width="60" height="30" as="geometry" />
        </mxCell>
        <mxCell id="gXBOJigTvJf-tN6301ke-73" value="Vin-" style="text;html=1;strokeColor=none;fillColor=none;align=center;verticalAlign=middle;whiteSpace=wrap;rounded=0;" vertex="1" parent="1">
          <mxGeometry x="660" y="280" width="60" height="30" as="geometry" />
        </mxCell>
        <mxCell id="gXBOJigTvJf-tN6301ke-74" value="Vin+" style="text;html=1;strokeColor=none;fillColor=none;align=center;verticalAlign=middle;whiteSpace=wrap;rounded=0;" vertex="1" parent="1">
          <mxGeometry x="660" y="310" width="60" height="30" as="geometry" />
        </mxCell>
        <mxCell id="gXBOJigTvJf-tN6301ke-78" value="&lt;b&gt;&lt;font style=&quot;font-size: 16px;&quot;&gt;ARDUINO UNO REV.3&lt;/font&gt;&lt;/b&gt;" style="rounded=0;whiteSpace=wrap;html=1;fillColor=none;" vertex="1" parent="1">
          <mxGeometry x="240" y="702" width="380" height="180" as="geometry" />
        </mxCell>
        <mxCell id="gXBOJigTvJf-tN6301ke-80" value="DOWNSIDE" style="text;html=1;strokeColor=none;fillColor=none;align=left;verticalAlign=middle;whiteSpace=wrap;rounded=0;fontSize=18;fontStyle=1" vertex="1" parent="1">
          <mxGeometry x="2" y="10" width="160" height="40" as="geometry" />
        </mxCell>
        <mxCell id="gXBOJigTvJf-tN6301ke-81" value="UPSIDE" style="text;html=1;strokeColor=none;fillColor=none;align=left;verticalAlign=middle;whiteSpace=wrap;rounded=0;fontSize=18;fontStyle=1" vertex="1" parent="1">
          <mxGeometry x="4" y="499" width="160" height="40" as="geometry" />
        </mxCell>
        <mxCell id="gXBOJigTvJf-tN6301ke-82" value="" style="endArrow=none;dashed=1;html=1;rounded=0;" edge="1" parent="1">
          <mxGeometry width="50" height="50" relative="1" as="geometry">
            <mxPoint x="5" y="491" as="sourcePoint" />
            <mxPoint x="825" y="491" as="targetPoint" />
          </mxGeometry>
        </mxCell>
        <mxCell id="gXBOJigTvJf-tN6301ke-83" value="GND 0&amp;nbsp; &amp;nbsp; &amp;nbsp;1&amp;nbsp; &amp;nbsp; &amp;nbsp;2&amp;nbsp; &amp;nbsp; &amp;nbsp;3&amp;nbsp; &amp;nbsp; &amp;nbsp;4&amp;nbsp; &amp;nbsp; &amp;nbsp;5&amp;nbsp; &amp;nbsp; &amp;nbsp;6&amp;nbsp; &amp;nbsp; &amp;nbsp;7&amp;nbsp; &amp;nbsp; &amp;nbsp;8&amp;nbsp; &amp;nbsp; &amp;nbsp;9&amp;nbsp; &amp;nbsp; &amp;nbsp;10&amp;nbsp; &amp;nbsp; &amp;nbsp;11&amp;nbsp; &amp;nbsp; &amp;nbsp;12&amp;nbsp; &amp;nbsp; &amp;nbsp;13" style="text;html=1;strokeColor=none;fillColor=none;align=left;verticalAlign=middle;whiteSpace=wrap;rounded=0;" vertex="1" parent="1">
          <mxGeometry x="240" y="702" width="388" height="30" as="geometry" />
        </mxCell>
        <mxCell id="gXBOJigTvJf-tN6301ke-84" value="&lt;span style=&quot;font-size: 16px;&quot;&gt;&lt;b&gt;LSM9DS1&lt;/b&gt;&lt;/span&gt;" style="rounded=0;whiteSpace=wrap;html=1;fillColor=none;" vertex="1" parent="1">
          <mxGeometry x="110" y="759.5" width="110" height="65" as="geometry" />
        </mxCell>
        <mxCell id="gXBOJigTvJf-tN6301ke-85" value="&lt;span style=&quot;font-size: 16px;&quot;&gt;&lt;b&gt;FS-IA6&lt;/b&gt;&lt;/span&gt;" style="rounded=0;whiteSpace=wrap;html=1;fillColor=none;" vertex="1" parent="1">
          <mxGeometry x="640" y="750" width="170" height="65" as="geometry" />
        </mxCell>
        <mxCell id="gXBOJigTvJf-tN6301ke-87" value="A0&amp;nbsp; &amp;nbsp; &amp;nbsp;A1&amp;nbsp; &amp;nbsp; &amp;nbsp;A2&amp;nbsp; &amp;nbsp; &amp;nbsp;A3&amp;nbsp; &amp;nbsp; &amp;nbsp;A4&amp;nbsp; &amp;nbsp; &amp;nbsp;A5&amp;nbsp; &amp;nbsp; &amp;nbsp;+3v3&amp;nbsp; &amp;nbsp; &amp;nbsp;+5v&amp;nbsp; &amp;nbsp;&amp;nbsp;Vin&amp;nbsp; &amp;nbsp; &amp;nbsp;GND&amp;nbsp; &amp;nbsp; &amp;nbsp;GND" style="text;html=1;strokeColor=none;fillColor=none;align=left;verticalAlign=middle;whiteSpace=wrap;rounded=0;" vertex="1" parent="1">
          <mxGeometry x="253" y="872" width="435" height="10" as="geometry" />
        </mxCell>
        <mxCell id="gXBOJigTvJf-tN6301ke-88" value="SCL&amp;nbsp; &amp;nbsp; &amp;nbsp;SDA&amp;nbsp; &amp;nbsp; &amp;nbsp;GND" style="text;html=1;strokeColor=none;fillColor=none;align=left;verticalAlign=middle;whiteSpace=wrap;rounded=0;" vertex="1" parent="1">
          <mxGeometry x="110" y="815" width="110" height="8" as="geometry" />
        </mxCell>
        <mxCell id="gXBOJigTvJf-tN6301ke-89" value="" style="endArrow=none;html=1;rounded=0;exitX=0.117;exitY=1.464;exitDx=0;exitDy=0;exitPerimeter=0;entryX=0.38;entryY=1.081;entryDx=0;entryDy=0;entryPerimeter=0;" edge="1" parent="1">
          <mxGeometry width="50" height="50" relative="1" as="geometry">
            <mxPoint x="122.86999999999989" y="824.712" as="sourcePoint" />
            <mxPoint x="418.29999999999995" y="882.4300000000001" as="targetPoint" />
            <Array as="points">
              <mxPoint x="123" y="910" />
              <mxPoint x="418" y="910" />
            </Array>
          </mxGeometry>
        </mxCell>
        <mxCell id="gXBOJigTvJf-tN6301ke-90" value="" style="endArrow=none;html=1;rounded=0;exitX=0.5;exitY=1;exitDx=0;exitDy=0;entryX=0.306;entryY=1.043;entryDx=0;entryDy=0;entryPerimeter=0;" edge="1" parent="1" source="gXBOJigTvJf-tN6301ke-88">
          <mxGeometry width="50" height="50" relative="1" as="geometry">
            <mxPoint x="165" y="819.5" as="sourcePoint" />
            <mxPoint x="386.1099999999997" y="882.2900000000002" as="targetPoint" />
            <Array as="points">
              <mxPoint x="165" y="897" />
              <mxPoint x="386" y="897" />
            </Array>
          </mxGeometry>
        </mxCell>
        <mxCell id="gXBOJigTvJf-tN6301ke-93" value="I2C Data" style="text;html=1;strokeColor=none;fillColor=none;align=center;verticalAlign=middle;whiteSpace=wrap;rounded=0;rotation=-90;" vertex="1" parent="1">
          <mxGeometry x="143" y="852" width="60" height="30" as="geometry" />
        </mxCell>
        <mxCell id="gXBOJigTvJf-tN6301ke-94" value="I2C Clk" style="text;html=1;strokeColor=none;fillColor=none;align=center;verticalAlign=middle;whiteSpace=wrap;rounded=0;rotation=-90;" vertex="1" parent="1">
          <mxGeometry x="86" y="852" width="60" height="30" as="geometry" />
        </mxCell>
        <mxCell id="gXBOJigTvJf-tN6301ke-95" value="Ch1 Ch2 Ch3 Ch4 Ch5&amp;nbsp; &amp;nbsp;GND" style="text;html=1;strokeColor=none;fillColor=none;align=left;verticalAlign=middle;whiteSpace=wrap;rounded=0;" vertex="1" parent="1">
          <mxGeometry x="646" y="750" width="180" height="11" as="geometry" />
        </mxCell>
        <mxCell id="gXBOJigTvJf-tN6301ke-96" value="" style="endArrow=none;html=1;rounded=0;exitX=0.1;exitY=0.021;exitDx=0;exitDy=0;exitPerimeter=0;entryX=0.853;entryY=-0.035;entryDx=0;entryDy=0;entryPerimeter=0;" edge="1" parent="1" target="gXBOJigTvJf-tN6301ke-83">
          <mxGeometry width="50" height="50" relative="1" as="geometry">
            <mxPoint x="657" y="751.365" as="sourcePoint" />
            <mxPoint x="500" y="712" as="targetPoint" />
            <Array as="points">
              <mxPoint x="657" y="672" />
              <mxPoint x="571" y="672" />
            </Array>
          </mxGeometry>
        </mxCell>
        <mxCell id="gXBOJigTvJf-tN6301ke-97" value="" style="endArrow=none;html=1;rounded=0;exitX=0.25;exitY=0;exitDx=0;exitDy=0;" edge="1" parent="1">
          <mxGeometry width="50" height="50" relative="1" as="geometry">
            <mxPoint x="689" y="749" as="sourcePoint" />
            <mxPoint x="542" y="702" as="targetPoint" />
            <Array as="points">
              <mxPoint x="688" y="648" />
              <mxPoint x="542" y="648" />
            </Array>
          </mxGeometry>
        </mxCell>
        <mxCell id="gXBOJigTvJf-tN6301ke-98" value="" style="endArrow=none;html=1;rounded=0;exitX=0.25;exitY=0;exitDx=0;exitDy=0;entryX=0.7;entryY=-0.012;entryDx=0;entryDy=0;entryPerimeter=0;" edge="1" parent="1" target="gXBOJigTvJf-tN6301ke-83">
          <mxGeometry width="50" height="50" relative="1" as="geometry">
            <mxPoint x="710" y="750" as="sourcePoint" />
            <mxPoint x="563" y="703" as="targetPoint" />
            <Array as="points">
              <mxPoint x="710" y="622" />
              <mxPoint x="510" y="622" />
            </Array>
          </mxGeometry>
        </mxCell>
        <mxCell id="gXBOJigTvJf-tN6301ke-99" value="" style="endArrow=none;html=1;rounded=0;exitX=0.25;exitY=0;exitDx=0;exitDy=0;entryX=0.638;entryY=-0.057;entryDx=0;entryDy=0;entryPerimeter=0;" edge="1" parent="1" target="gXBOJigTvJf-tN6301ke-83">
          <mxGeometry width="50" height="50" relative="1" as="geometry">
            <mxPoint x="740" y="750" as="sourcePoint" />
            <mxPoint x="542" y="702" as="targetPoint" />
            <Array as="points">
              <mxPoint x="740" y="602" />
              <mxPoint x="488" y="602" />
            </Array>
          </mxGeometry>
        </mxCell>
        <mxCell id="gXBOJigTvJf-tN6301ke-100" value="" style="endArrow=none;html=1;rounded=0;exitX=0.25;exitY=0;exitDx=0;exitDy=0;entryX=0.576;entryY=0.01;entryDx=0;entryDy=0;entryPerimeter=0;" edge="1" parent="1" target="gXBOJigTvJf-tN6301ke-83">
          <mxGeometry width="50" height="50" relative="1" as="geometry">
            <mxPoint x="762" y="750" as="sourcePoint" />
            <mxPoint x="510" y="700" as="targetPoint" />
            <Array as="points">
              <mxPoint x="762" y="582" />
              <mxPoint x="463" y="582" />
            </Array>
          </mxGeometry>
        </mxCell>
        <mxCell id="gXBOJigTvJf-tN6301ke-101" value="PWMCh1" style="text;html=1;strokeColor=none;fillColor=none;align=center;verticalAlign=middle;whiteSpace=wrap;rounded=0;rotation=-90;" vertex="1" parent="1">
          <mxGeometry x="620" y="711" width="60" height="10" as="geometry" />
        </mxCell>
        <mxCell id="gXBOJigTvJf-tN6301ke-102" value="PWMCh2" style="text;html=1;strokeColor=none;fillColor=none;align=center;verticalAlign=middle;whiteSpace=wrap;rounded=0;rotation=-90;" vertex="1" parent="1">
          <mxGeometry x="650" y="711" width="60" height="10" as="geometry" />
        </mxCell>
        <mxCell id="gXBOJigTvJf-tN6301ke-107" value="PWMCh3" style="text;html=1;strokeColor=none;fillColor=none;align=center;verticalAlign=middle;whiteSpace=wrap;rounded=0;rotation=-90;" vertex="1" parent="1">
          <mxGeometry x="674" y="710" width="60" height="10" as="geometry" />
        </mxCell>
        <mxCell id="gXBOJigTvJf-tN6301ke-108" value="PWMCh4" style="text;html=1;strokeColor=none;fillColor=none;align=center;verticalAlign=middle;whiteSpace=wrap;rounded=0;rotation=-90;" vertex="1" parent="1">
          <mxGeometry x="703" y="710" width="60" height="10" as="geometry" />
        </mxCell>
        <mxCell id="gXBOJigTvJf-tN6301ke-109" value="PWMCh5" style="text;html=1;strokeColor=none;fillColor=none;align=center;verticalAlign=middle;whiteSpace=wrap;rounded=0;rotation=-90;" vertex="1" parent="1">
          <mxGeometry x="725" y="710" width="60" height="10" as="geometry" />
        </mxCell>
        <mxCell id="gXBOJigTvJf-tN6301ke-110" value="Vin&amp;nbsp; &amp;nbsp; &amp;nbsp;" style="text;html=1;strokeColor=none;fillColor=none;align=center;verticalAlign=middle;whiteSpace=wrap;rounded=0;" vertex="1" parent="1">
          <mxGeometry x="624" y="804" width="90" height="8" as="geometry" />
        </mxCell>
        <mxCell id="gXBOJigTvJf-tN6301ke-111" value="Vin&amp;nbsp; &amp;nbsp; &amp;nbsp;" style="text;html=1;strokeColor=none;fillColor=none;align=center;verticalAlign=middle;whiteSpace=wrap;rounded=0;" vertex="1" parent="1">
          <mxGeometry x="99" y="764" width="72" height="8" as="geometry" />
        </mxCell>
        <mxCell id="gXBOJigTvJf-tN6301ke-112" value="" style="endArrow=none;html=1;rounded=0;entryX=0.471;entryY=1.038;entryDx=0;entryDy=0;entryPerimeter=0;" edge="1" parent="1">
          <mxGeometry width="50" height="50" relative="1" as="geometry">
            <mxPoint x="128" y="762" as="sourcePoint" />
            <mxPoint x="457.88499999999976" y="882.1400000000001" as="targetPoint" />
            <Array as="points">
              <mxPoint x="128" y="737" />
              <mxPoint x="70" y="737" />
              <mxPoint x="70" y="927" />
              <mxPoint x="458" y="927" />
            </Array>
          </mxGeometry>
        </mxCell>
        <mxCell id="gXBOJigTvJf-tN6301ke-114" value="" style="endArrow=none;html=1;rounded=0;" edge="1" parent="1">
          <mxGeometry width="50" height="50" relative="1" as="geometry">
            <mxPoint x="490" y="882" as="sourcePoint" />
            <mxPoint x="662" y="815" as="targetPoint" />
            <Array as="points">
              <mxPoint x="490" y="972" />
              <mxPoint x="580" y="972" />
              <mxPoint x="662" y="972" />
            </Array>
          </mxGeometry>
        </mxCell>
        <mxCell id="gXBOJigTvJf-tN6301ke-117" value="&amp;nbsp; &amp;nbsp; &amp;nbsp; &amp;nbsp; &amp;nbsp; &amp;nbsp; &amp;nbsp; &amp;nbsp; &amp;nbsp; &amp;nbsp; &amp;nbsp;COMMON GND" style="rounded=0;whiteSpace=wrap;html=1;" vertex="1" parent="1">
          <mxGeometry x="72" y="545" width="750" height="10" as="geometry" />
        </mxCell>
        <mxCell id="gXBOJigTvJf-tN6301ke-118" value="" style="endArrow=none;html=1;rounded=0;exitX=0.052;exitY=0.032;exitDx=0;exitDy=0;exitPerimeter=0;entryX=0.25;entryY=1;entryDx=0;entryDy=0;" edge="1" parent="1" source="gXBOJigTvJf-tN6301ke-83">
          <mxGeometry width="50" height="50" relative="1" as="geometry">
            <mxPoint x="450" y="702" as="sourcePoint" />
            <mxPoint x="259.49999999999886" y="556" as="targetPoint" />
          </mxGeometry>
        </mxCell>
        <mxCell id="gXBOJigTvJf-tN6301ke-119" value="" style="endArrow=none;html=1;rounded=0;exitX=0.93;exitY=0.001;exitDx=0;exitDy=0;exitPerimeter=0;entryX=0.971;entryY=0.975;entryDx=0;entryDy=0;entryPerimeter=0;" edge="1" parent="1">
          <mxGeometry width="50" height="50" relative="1" as="geometry">
            <mxPoint x="798.0999999999999" y="750.065" as="sourcePoint" />
            <mxPoint x="800.25" y="555.75" as="targetPoint" />
          </mxGeometry>
        </mxCell>
        <mxCell id="gXBOJigTvJf-tN6301ke-125" value="" style="pointerEvents=1;verticalLabelPosition=bottom;shadow=0;dashed=0;align=center;html=1;verticalAlign=top;shape=mxgraph.electrical.miscellaneous.shielded_jack_plug;fillColor=none;" vertex="1" parent="1">
          <mxGeometry x="455" y="1018" width="40" height="80" as="geometry" />
        </mxCell>
        <mxCell id="gXBOJigTvJf-tN6301ke-126" value="" style="verticalLabelPosition=bottom;shadow=0;dashed=0;align=center;fillColor=strokeColor;html=1;verticalAlign=top;strokeWidth=1;shape=mxgraph.electrical.miscellaneous.monocell_battery;rotation=-90;" vertex="1" parent="1">
          <mxGeometry x="310.5" y="1005.5" width="73" height="60" as="geometry" />
        </mxCell>
        <mxCell id="gXBOJigTvJf-tN6301ke-127" value="" style="endArrow=none;html=1;rounded=0;exitX=0;exitY=0.5;exitDx=0;exitDy=0;exitPerimeter=0;entryX=0.559;entryY=0.606;entryDx=0;entryDy=0;entryPerimeter=0;" edge="1" parent="1">
          <mxGeometry width="50" height="50" relative="1" as="geometry">
            <mxPoint x="347" y="1072" as="sourcePoint" />
            <mxPoint x="474.95000000000005" y="1072.6" as="targetPoint" />
          </mxGeometry>
        </mxCell>
        <mxCell id="gXBOJigTvJf-tN6301ke-128" value="NiMH&lt;br&gt;Battery" style="text;html=1;strokeColor=none;fillColor=none;align=center;verticalAlign=middle;whiteSpace=wrap;rounded=0;fontSize=16;fontStyle=1" vertex="1" parent="1">
          <mxGeometry x="253" y="1020.5" width="70" height="30" as="geometry" />
        </mxCell>
        <mxCell id="gXBOJigTvJf-tN6301ke-129" value="" style="endArrow=none;html=1;rounded=0;exitX=0.502;exitY=0.135;exitDx=0;exitDy=0;exitPerimeter=0;entryX=1;entryY=0.5;entryDx=0;entryDy=0;entryPerimeter=0;" edge="1" parent="1" source="gXBOJigTvJf-tN6301ke-125" target="gXBOJigTvJf-tN6301ke-126">
          <mxGeometry width="50" height="50" relative="1" as="geometry">
            <mxPoint x="230" y="1092" as="sourcePoint" />
            <mxPoint x="280" y="1042" as="targetPoint" />
            <Array as="points">
              <mxPoint x="475" y="999" />
            </Array>
          </mxGeometry>
        </mxCell>
        <mxCell id="gXBOJigTvJf-tN6301ke-131" value="Arduino UNO&lt;br&gt;Power Jack" style="text;html=1;strokeColor=none;fillColor=none;align=center;verticalAlign=middle;whiteSpace=wrap;rounded=0;fontSize=16;fontStyle=1" vertex="1" parent="1">
          <mxGeometry x="495" y="1052" width="105" height="30" as="geometry" />
        </mxCell>
        <mxCell id="gXBOJigTvJf-tN6301ke-136" value="" style="endArrow=none;dashed=1;html=1;rounded=0;exitX=0.776;exitY=0.265;exitDx=0;exitDy=0;exitPerimeter=0;entryX=0.616;entryY=1.2;entryDx=0;entryDy=0;entryPerimeter=0;" edge="1" parent="1" source="gXBOJigTvJf-tN6301ke-125" target="gXBOJigTvJf-tN6301ke-87">
          <mxGeometry width="50" height="50" relative="1" as="geometry">
            <mxPoint x="230" y="922" as="sourcePoint" />
            <mxPoint x="280" y="872" as="targetPoint" />
            <Array as="points">
              <mxPoint x="520" y="1039" />
            </Array>
          </mxGeometry>
        </mxCell>
        <mxCell id="gXBOJigTvJf-tN6301ke-137" value="" style="endArrow=none;dashed=1;html=1;rounded=0;exitX=0.776;exitY=0.265;exitDx=0;exitDy=0;exitPerimeter=0;entryX=0.71;entryY=1.105;entryDx=0;entryDy=0;entryPerimeter=0;" edge="1" parent="1" target="gXBOJigTvJf-tN6301ke-87">
          <mxGeometry width="50" height="50" relative="1" as="geometry">
            <mxPoint x="488" y="1021" as="sourcePoint" />
            <mxPoint x="523" y="866" as="targetPoint" />
            <Array as="points">
              <mxPoint x="562" y="1021" />
            </Array>
          </mxGeometry>
        </mxCell>
        <mxCell id="gXBOJigTvJf-tN6301ke-139" value="" style="verticalLabelPosition=bottom;verticalAlign=top;html=1;shape=mxgraph.basic.arc;startAngle=0.6829290501099399;endAngle=0.1;rotation=-45;" vertex="1" parent="1">
          <mxGeometry x="184.13" y="880.52" width="55.56" height="60.71" as="geometry" />
        </mxCell>
        <mxCell id="gXBOJigTvJf-tN6301ke-142" value="" style="endArrow=none;html=1;rounded=0;entryX=0.86;entryY=1.036;entryDx=0;entryDy=0;entryPerimeter=0;" edge="1" parent="1">
          <mxGeometry width="50" height="50" relative="1" as="geometry">
            <mxPoint x="205" y="882" as="sourcePoint" />
            <mxPoint x="204.5999999999999" y="823.8399999999999" as="targetPoint" />
          </mxGeometry>
        </mxCell>
        <mxCell id="gXBOJigTvJf-tN6301ke-143" value="" style="endArrow=none;html=1;rounded=0;exitX=-0.039;exitY=0.723;exitDx=0;exitDy=0;exitPerimeter=0;" edge="1" parent="1">
          <mxGeometry width="50" height="50" relative="1" as="geometry">
            <mxPoint x="202.30743130983274" y="937.6236585880497" as="sourcePoint" />
            <mxPoint x="472" y="938" as="targetPoint" />
          </mxGeometry>
        </mxCell>
        <mxCell id="gXBOJigTvJf-tN6301ke-144" value="" style="verticalLabelPosition=bottom;verticalAlign=top;html=1;shape=mxgraph.basic.arc;startAngle=0.235714542894766;endAngle=0.7770656702417699;rotation=-180;" vertex="1" parent="1">
          <mxGeometry x="472" y="905" width="107.56" height="60.71" as="geometry" />
        </mxCell>
        <mxCell id="gXBOJigTvJf-tN6301ke-145" value="" style="endArrow=none;html=1;rounded=0;exitX=0.011;exitY=0.436;exitDx=0;exitDy=0;exitPerimeter=0;entryX=0.813;entryY=1.057;entryDx=0;entryDy=0;entryPerimeter=0;" edge="1" parent="1" source="gXBOJigTvJf-tN6301ke-144" target="gXBOJigTvJf-tN6301ke-87">
          <mxGeometry width="50" height="50" relative="1" as="geometry">
            <mxPoint x="230" y="852" as="sourcePoint" />
            <mxPoint x="280" y="802" as="targetPoint" />
            <Array as="points">
              <mxPoint x="607" y="939" />
            </Array>
          </mxGeometry>
        </mxCell>
        <mxCell id="gXBOJigTvJf-tN6301ke-146" value="GND&amp;nbsp; PWM In" style="text;html=1;strokeColor=none;fillColor=none;align=left;verticalAlign=middle;whiteSpace=wrap;rounded=0;" vertex="1" parent="1">
          <mxGeometry x="70" y="280" width="110" height="11" as="geometry" />
        </mxCell>
        <mxCell id="gXBOJigTvJf-tN6301ke-147" value="Sig out" style="text;html=1;strokeColor=none;fillColor=none;align=center;verticalAlign=middle;whiteSpace=wrap;rounded=0;" vertex="1" parent="1">
          <mxGeometry x="110" y="327" width="40" height="10" as="geometry" />
        </mxCell>
        <mxCell id="gXBOJigTvJf-tN6301ke-148" value="GND&amp;nbsp; PWM In" style="text;html=1;strokeColor=none;fillColor=none;align=left;verticalAlign=middle;whiteSpace=wrap;rounded=0;" vertex="1" parent="1">
          <mxGeometry x="710" y="280" width="80" height="11" as="geometry" />
        </mxCell>
        <mxCell id="gXBOJigTvJf-tN6301ke-149" value="Sig out" style="text;html=1;strokeColor=none;fillColor=none;align=center;verticalAlign=middle;whiteSpace=wrap;rounded=0;" vertex="1" parent="1">
          <mxGeometry x="710" y="327" width="40" height="10" as="geometry" />
        </mxCell>
        <mxCell id="gXBOJigTvJf-tN6301ke-150" value="GND&amp;nbsp; PWM In" style="text;html=1;strokeColor=none;fillColor=none;align=left;verticalAlign=middle;whiteSpace=wrap;rounded=0;" vertex="1" parent="1">
          <mxGeometry x="710" y="209" width="80" height="11" as="geometry" />
        </mxCell>
        <mxCell id="gXBOJigTvJf-tN6301ke-151" value="Sig out" style="text;html=1;strokeColor=none;fillColor=none;align=center;verticalAlign=middle;whiteSpace=wrap;rounded=0;" vertex="1" parent="1">
          <mxGeometry x="710" y="160" width="40" height="10" as="geometry" />
        </mxCell>
        <mxCell id="gXBOJigTvJf-tN6301ke-152" value="Sig out" style="text;html=1;strokeColor=none;fillColor=none;align=center;verticalAlign=middle;whiteSpace=wrap;rounded=0;" vertex="1" parent="1">
          <mxGeometry x="110" y="160" width="40" height="10" as="geometry" />
        </mxCell>
        <mxCell id="gXBOJigTvJf-tN6301ke-153" value="GND&amp;nbsp; PWM In" style="text;html=1;strokeColor=none;fillColor=none;align=left;verticalAlign=middle;whiteSpace=wrap;rounded=0;" vertex="1" parent="1">
          <mxGeometry x="72" y="209" width="110" height="11" as="geometry" />
        </mxCell>
        <mxCell id="gXBOJigTvJf-tN6301ke-154" value="" style="endArrow=none;html=1;rounded=0;exitX=0;exitY=0.5;exitDx=0;exitDy=0;entryX=0.06;entryY=-0.01;entryDx=0;entryDy=0;entryPerimeter=0;" edge="1" parent="1" source="gXBOJigTvJf-tN6301ke-146" target="gXBOJigTvJf-tN6301ke-117">
          <mxGeometry width="50" height="50" relative="1" as="geometry">
            <mxPoint x="230" y="400" as="sourcePoint" />
            <mxPoint x="280" y="350" as="targetPoint" />
            <Array as="points">
              <mxPoint x="20" y="286" />
              <mxPoint x="20" y="470" />
              <mxPoint x="117" y="470" />
            </Array>
          </mxGeometry>
        </mxCell>
        <mxCell id="gXBOJigTvJf-tN6301ke-155" value="" style="endArrow=none;html=1;rounded=0;exitX=0.131;exitY=1.004;exitDx=0;exitDy=0;exitPerimeter=0;entryX=0.038;entryY=0.086;entryDx=0;entryDy=0;entryPerimeter=0;" edge="1" parent="1" source="gXBOJigTvJf-tN6301ke-153" target="gXBOJigTvJf-tN6301ke-117">
          <mxGeometry width="50" height="50" relative="1" as="geometry">
            <mxPoint x="86.96000000000004" y="218.09900000000005" as="sourcePoint" />
            <mxPoint x="100.5" y="523.81" as="targetPoint" />
            <Array as="points">
              <mxPoint x="87" y="268" />
              <mxPoint x="10" y="268" />
              <mxPoint x="10" y="478" />
              <mxPoint x="100" y="478" />
            </Array>
          </mxGeometry>
        </mxCell>
        <mxCell id="gXBOJigTvJf-tN6301ke-156" value="" style="endArrow=none;html=1;rounded=0;exitX=0.25;exitY=0;exitDx=0;exitDy=0;entryX=0.914;entryY=-0.157;entryDx=0;entryDy=0;entryPerimeter=0;" edge="1" parent="1" source="gXBOJigTvJf-tN6301ke-148" target="gXBOJigTvJf-tN6301ke-117">
          <mxGeometry width="50" height="50" relative="1" as="geometry">
            <mxPoint x="230" y="330" as="sourcePoint" />
            <mxPoint x="280" y="280" as="targetPoint" />
            <Array as="points">
              <mxPoint x="730" y="260" />
              <mxPoint x="770" y="260" />
              <mxPoint x="810" y="260" />
              <mxPoint x="810" y="400" />
              <mxPoint x="810" y="500" />
              <mxPoint x="758" y="500" />
            </Array>
          </mxGeometry>
        </mxCell>
        <mxCell id="gXBOJigTvJf-tN6301ke-157" value="" style="endArrow=none;html=1;rounded=0;exitX=0.25;exitY=1;exitDx=0;exitDy=0;entryX=0.934;entryY=-0.1;entryDx=0;entryDy=0;entryPerimeter=0;" edge="1" parent="1" source="gXBOJigTvJf-tN6301ke-150" target="gXBOJigTvJf-tN6301ke-117">
          <mxGeometry width="50" height="50" relative="1" as="geometry">
            <mxPoint x="230" y="430" as="sourcePoint" />
            <mxPoint x="280" y="380" as="targetPoint" />
            <Array as="points">
              <mxPoint x="730" y="250" />
              <mxPoint x="820" y="250" />
              <mxPoint x="820" y="510" />
              <mxPoint x="773" y="510" />
            </Array>
          </mxGeometry>
        </mxCell>
        <mxCell id="gXBOJigTvJf-tN6301ke-158" value="" style="endArrow=none;html=1;rounded=0;exitX=0.336;exitY=-0.005;exitDx=0;exitDy=0;exitPerimeter=0;" edge="1" parent="1" source="gXBOJigTvJf-tN6301ke-83">
          <mxGeometry width="50" height="50" relative="1" as="geometry">
            <mxPoint x="230" y="730" as="sourcePoint" />
            <mxPoint x="370" y="570" as="targetPoint" />
          </mxGeometry>
        </mxCell>
        <mxCell id="gXBOJigTvJf-tN6301ke-159" value="" style="verticalLabelPosition=bottom;verticalAlign=top;html=1;shape=mxgraph.basic.arc;startAngle=0.6829290501099399;endAngle=0.1;rotation=-45;" vertex="1" parent="1">
          <mxGeometry x="351" y="513" width="55.56" height="60.71" as="geometry" />
        </mxCell>
        <mxCell id="gXBOJigTvJf-tN6301ke-161" value="M1 PWM" style="text;html=1;strokeColor=none;fillColor=none;align=center;verticalAlign=middle;whiteSpace=wrap;rounded=0;rotation=-90;" vertex="1" parent="1">
          <mxGeometry x="333" y="660" width="60" height="10" as="geometry" />
        </mxCell>
        <mxCell id="gXBOJigTvJf-tN6301ke-162" value="" style="endArrow=none;html=1;rounded=0;exitX=0.336;exitY=-0.005;exitDx=0;exitDy=0;exitPerimeter=0;" edge="1" parent="1">
          <mxGeometry width="50" height="50" relative="1" as="geometry">
            <mxPoint x="390" y="702" as="sourcePoint" />
            <mxPoint x="390" y="570" as="targetPoint" />
          </mxGeometry>
        </mxCell>
        <mxCell id="gXBOJigTvJf-tN6301ke-163" value="" style="verticalLabelPosition=bottom;verticalAlign=top;html=1;shape=mxgraph.basic.arc;startAngle=0.6829290501099399;endAngle=0.1;rotation=-45;" vertex="1" parent="1">
          <mxGeometry x="371" y="513" width="55.56" height="60.71" as="geometry" />
        </mxCell>
        <mxCell id="gXBOJigTvJf-tN6301ke-164" value="" style="endArrow=none;html=1;rounded=0;exitX=0.336;exitY=-0.005;exitDx=0;exitDy=0;exitPerimeter=0;" edge="1" parent="1">
          <mxGeometry width="50" height="50" relative="1" as="geometry">
            <mxPoint x="413.44" y="702" as="sourcePoint" />
            <mxPoint x="413.44" y="570" as="targetPoint" />
          </mxGeometry>
        </mxCell>
        <mxCell id="gXBOJigTvJf-tN6301ke-165" value="" style="verticalLabelPosition=bottom;verticalAlign=top;html=1;shape=mxgraph.basic.arc;startAngle=0.6829290501099399;endAngle=0.1;rotation=-45;" vertex="1" parent="1">
          <mxGeometry x="394.44" y="513" width="55.56" height="60.71" as="geometry" />
        </mxCell>
        <mxCell id="gXBOJigTvJf-tN6301ke-166" value="" style="endArrow=none;html=1;rounded=0;exitX=0.336;exitY=-0.005;exitDx=0;exitDy=0;exitPerimeter=0;" edge="1" parent="1">
          <mxGeometry width="50" height="50" relative="1" as="geometry">
            <mxPoint x="439" y="702" as="sourcePoint" />
            <mxPoint x="439" y="570" as="targetPoint" />
          </mxGeometry>
        </mxCell>
        <mxCell id="gXBOJigTvJf-tN6301ke-167" value="" style="verticalLabelPosition=bottom;verticalAlign=top;html=1;shape=mxgraph.basic.arc;startAngle=0.6829290501099399;endAngle=0.1;rotation=-45;" vertex="1" parent="1">
          <mxGeometry x="420" y="513" width="55.56" height="60.71" as="geometry" />
        </mxCell>
        <mxCell id="gXBOJigTvJf-tN6301ke-168" value="M4 PWM" style="text;html=1;strokeColor=none;fillColor=none;align=center;verticalAlign=middle;whiteSpace=wrap;rounded=0;rotation=-90;" vertex="1" parent="1">
          <mxGeometry x="354" y="660" width="60" height="10" as="geometry" />
        </mxCell>
        <mxCell id="gXBOJigTvJf-tN6301ke-170" value="M3 PWM" style="text;html=1;strokeColor=none;fillColor=none;align=center;verticalAlign=middle;whiteSpace=wrap;rounded=0;rotation=-90;" vertex="1" parent="1">
          <mxGeometry x="377" y="660" width="60" height="10" as="geometry" />
        </mxCell>
        <mxCell id="gXBOJigTvJf-tN6301ke-171" value="M2 PWM" style="text;html=1;strokeColor=none;fillColor=none;align=center;verticalAlign=middle;whiteSpace=wrap;rounded=0;rotation=-90;" vertex="1" parent="1">
          <mxGeometry x="404" y="660" width="60" height="10" as="geometry" />
        </mxCell>
        <mxCell id="gXBOJigTvJf-tN6301ke-173" value="6V+" style="text;html=1;strokeColor=none;fillColor=none;align=center;verticalAlign=middle;whiteSpace=wrap;rounded=0;" vertex="1" parent="1">
          <mxGeometry x="340" y="1006" width="60" height="30" as="geometry" />
        </mxCell>
        <mxCell id="gXBOJigTvJf-tN6301ke-174" value="6V-" style="text;html=1;strokeColor=none;fillColor=none;align=center;verticalAlign=middle;whiteSpace=wrap;rounded=0;" vertex="1" parent="1">
          <mxGeometry x="340" y="1036" width="60" height="30" as="geometry" />
        </mxCell>
        <mxCell id="gXBOJigTvJf-tN6301ke-176" value="" style="endArrow=none;html=1;rounded=0;exitX=0.767;exitY=0.057;exitDx=0;exitDy=0;exitPerimeter=0;" edge="1" parent="1">
          <mxGeometry width="50" height="50" relative="1" as="geometry">
            <mxPoint x="372.2522851478225" y="514.8481057725274" as="sourcePoint" />
            <mxPoint x="219" y="346" as="targetPoint" />
            <Array as="points">
              <mxPoint x="372" y="431" />
              <mxPoint x="219" y="431" />
            </Array>
          </mxGeometry>
        </mxCell>
        <mxCell id="gXBOJigTvJf-tN6301ke-177" value="" style="verticalLabelPosition=bottom;verticalAlign=top;html=1;shape=mxgraph.basic.arc;startAngle=0.6755101476547585;endAngle=0.1;rotation=-45;" vertex="1" parent="1">
          <mxGeometry x="199.44" y="288" width="55.56" height="60.71" as="geometry" />
        </mxCell>
        <mxCell id="gXBOJigTvJf-tN6301ke-178" value="" style="endArrow=none;html=1;rounded=0;exitX=0.769;exitY=0.086;exitDx=0;exitDy=0;exitPerimeter=0;entryX=0.5;entryY=1;entryDx=0;entryDy=0;" edge="1" parent="1">
          <mxGeometry width="50" height="50" relative="1" as="geometry">
            <mxPoint x="221.01578398123718" y="290.01445719489135" as="sourcePoint" />
            <mxPoint x="128" y="220" as="targetPoint" />
            <Array as="points">
              <mxPoint x="221" y="260" />
              <mxPoint x="221" y="240" />
              <mxPoint x="128" y="240" />
            </Array>
          </mxGeometry>
        </mxCell>
        <mxCell id="gXBOJigTvJf-tN6301ke-182" value="" style="endArrow=none;html=1;rounded=0;exitX=0.804;exitY=0.076;exitDx=0;exitDy=0;exitPerimeter=0;entryX=0.05;entryY=0.709;entryDx=0;entryDy=0;entryPerimeter=0;" edge="1" parent="1" target="gXBOJigTvJf-tN6301ke-183">
          <mxGeometry width="50" height="50" relative="1" as="geometry">
            <mxPoint x="392.5215393010741" y="514.2101328213375" as="sourcePoint" />
            <mxPoint x="230" y="360" as="targetPoint" />
            <Array as="points">
              <mxPoint x="393" y="470" />
              <mxPoint x="393" y="420" />
              <mxPoint x="360" y="420" />
              <mxPoint x="230" y="420" />
            </Array>
          </mxGeometry>
        </mxCell>
        <mxCell id="gXBOJigTvJf-tN6301ke-183" value="" style="verticalLabelPosition=bottom;verticalAlign=top;html=1;shape=mxgraph.basic.arc;startAngle=0.6755101476547585;endAngle=0.1;rotation=-45;" vertex="1" parent="1">
          <mxGeometry x="209.44" y="288" width="55.56" height="60.71" as="geometry" />
        </mxCell>
        <mxCell id="gXBOJigTvJf-tN6301ke-184" value="" style="endArrow=none;html=1;rounded=0;exitX=0.797;exitY=0.092;exitDx=0;exitDy=0;exitPerimeter=0;" edge="1" parent="1" source="gXBOJigTvJf-tN6301ke-183">
          <mxGeometry width="50" height="50" relative="1" as="geometry">
            <mxPoint x="230" y="260" as="sourcePoint" />
            <mxPoint x="231" y="270" as="targetPoint" />
          </mxGeometry>
        </mxCell>
        <mxCell id="gXBOJigTvJf-tN6301ke-187" value="" style="verticalLabelPosition=bottom;verticalAlign=top;html=1;shape=mxgraph.basic.arc;startAngle=0.6605252007675729;endAngle=0.1;rotation=45;" vertex="1" parent="1">
          <mxGeometry x="211.44000000000003" y="262.36" width="19.5" height="19.64" as="geometry" />
        </mxCell>
        <mxCell id="gXBOJigTvJf-tN6301ke-189" value="" style="endArrow=none;html=1;rounded=0;exitX=0.022;exitY=0.787;exitDx=0;exitDy=0;exitPerimeter=0;entryX=0.5;entryY=0;entryDx=0;entryDy=0;" edge="1" parent="1">
          <mxGeometry width="50" height="50" relative="1" as="geometry">
            <mxPoint x="211.61332304118162" y="269.5747923439387" as="sourcePoint" />
            <mxPoint x="126" y="280" as="targetPoint" />
            <Array as="points">
              <mxPoint x="126" y="270" />
            </Array>
          </mxGeometry>
        </mxCell>
        <mxCell id="gXBOJigTvJf-tN6301ke-190" value="" style="endArrow=none;html=1;rounded=0;exitX=0.79;exitY=0.085;exitDx=0;exitDy=0;exitPerimeter=0;" edge="1" parent="1" source="gXBOJigTvJf-tN6301ke-165">
          <mxGeometry width="50" height="50" relative="1" as="geometry">
            <mxPoint x="419.94410204785015" y="514.7427115067917" as="sourcePoint" />
            <mxPoint x="644" y="340" as="targetPoint" />
            <Array as="points">
              <mxPoint x="416" y="460" />
              <mxPoint x="644" y="461" />
            </Array>
          </mxGeometry>
        </mxCell>
        <mxCell id="gXBOJigTvJf-tN6301ke-191" value="" style="verticalLabelPosition=bottom;verticalAlign=top;html=1;shape=mxgraph.basic.arc;startAngle=0.6755101476547585;endAngle=0.1;rotation=-45;" vertex="1" parent="1">
          <mxGeometry x="624" y="282" width="55.56" height="60.71" as="geometry" />
        </mxCell>
        <mxCell id="gXBOJigTvJf-tN6301ke-192" value="" style="endArrow=none;html=1;rounded=0;exitX=0.795;exitY=0.088;exitDx=0;exitDy=0;exitPerimeter=0;entryX=0.068;entryY=0.73;entryDx=0;entryDy=0;entryPerimeter=0;" edge="1" parent="1" source="gXBOJigTvJf-tN6301ke-191" target="gXBOJigTvJf-tN6301ke-193">
          <mxGeometry width="50" height="50" relative="1" as="geometry">
            <mxPoint x="580" y="310" as="sourcePoint" />
            <mxPoint x="710" y="270" as="targetPoint" />
            <Array as="points">
              <mxPoint x="646" y="270" />
            </Array>
          </mxGeometry>
        </mxCell>
        <mxCell id="gXBOJigTvJf-tN6301ke-193" value="" style="verticalLabelPosition=bottom;verticalAlign=top;html=1;shape=mxgraph.basic.arc;startAngle=0.6701672353008665;endAngle=0.07597187716686077;rotation=45;" vertex="1" parent="1">
          <mxGeometry x="719.33" y="262.36" width="21.34" height="21.37" as="geometry" />
        </mxCell>
        <mxCell id="gXBOJigTvJf-tN6301ke-195" value="" style="endArrow=none;html=1;rounded=0;entryX=0.73;entryY=0.068;entryDx=0;entryDy=0;entryPerimeter=0;exitX=0.629;exitY=-0.048;exitDx=0;exitDy=0;exitPerimeter=0;" edge="1" parent="1" source="gXBOJigTvJf-tN6301ke-148" target="gXBOJigTvJf-tN6301ke-193">
          <mxGeometry width="50" height="50" relative="1" as="geometry">
            <mxPoint x="580" y="310" as="sourcePoint" />
            <mxPoint x="630" y="260" as="targetPoint" />
            <Array as="points">
              <mxPoint x="760" y="270" />
            </Array>
          </mxGeometry>
        </mxCell>
        <mxCell id="gXBOJigTvJf-tN6301ke-196" value="" style="endArrow=none;html=1;rounded=0;exitX=0.79;exitY=0.085;exitDx=0;exitDy=0;exitPerimeter=0;entryX=0;entryY=1;entryDx=0;entryDy=0;" edge="1" parent="1" target="gXBOJigTvJf-tN6301ke-74">
          <mxGeometry width="50" height="50" relative="1" as="geometry">
            <mxPoint x="442" y="514" as="sourcePoint" />
            <mxPoint x="670" y="340" as="targetPoint" />
            <Array as="points">
              <mxPoint x="442" y="470" />
              <mxPoint x="660" y="470" />
            </Array>
          </mxGeometry>
        </mxCell>
        <mxCell id="gXBOJigTvJf-tN6301ke-197" value="" style="verticalLabelPosition=bottom;verticalAlign=top;html=1;shape=mxgraph.basic.arc;startAngle=0.6755101476547585;endAngle=0.1;rotation=-45;" vertex="1" parent="1">
          <mxGeometry x="640" y="282" width="55.56" height="60.71" as="geometry" />
        </mxCell>
        <mxCell id="gXBOJigTvJf-tN6301ke-198" value="" style="verticalLabelPosition=bottom;verticalAlign=top;html=1;shape=mxgraph.basic.arc;startAngle=0.6701672353008665;endAngle=0.07597187716686077;rotation=-45;" vertex="1" parent="1">
          <mxGeometry x="654.66" y="254.63" width="21.34" height="21.37" as="geometry" />
        </mxCell>
        <mxCell id="gXBOJigTvJf-tN6301ke-199" value="" style="endArrow=none;html=1;rounded=0;entryX=0.787;entryY=0.095;entryDx=0;entryDy=0;entryPerimeter=0;exitX=0.064;exitY=0.712;exitDx=0;exitDy=0;exitPerimeter=0;" edge="1" parent="1" source="gXBOJigTvJf-tN6301ke-198" target="gXBOJigTvJf-tN6301ke-197">
          <mxGeometry width="50" height="50" relative="1" as="geometry">
            <mxPoint x="580" y="360" as="sourcePoint" />
            <mxPoint x="630" y="310" as="targetPoint" />
          </mxGeometry>
        </mxCell>
        <mxCell id="gXBOJigTvJf-tN6301ke-201" value="" style="endArrow=none;html=1;rounded=0;" edge="1" parent="1">
          <mxGeometry width="50" height="50" relative="1" as="geometry">
            <mxPoint x="662" y="255" as="sourcePoint" />
            <mxPoint x="722" y="230" as="targetPoint" />
            <Array as="points">
              <mxPoint x="662" y="230" />
            </Array>
          </mxGeometry>
        </mxCell>
        <mxCell id="gXBOJigTvJf-tN6301ke-202" value="" style="verticalLabelPosition=bottom;verticalAlign=top;html=1;shape=mxgraph.basic.arc;startAngle=0.6701672353008665;endAngle=0.07597187716686077;rotation=45;" vertex="1" parent="1">
          <mxGeometry x="721.33" y="222.36" width="21.34" height="21.37" as="geometry" />
        </mxCell>
        <mxCell id="gXBOJigTvJf-tN6301ke-204" value="" style="endArrow=none;html=1;rounded=0;exitX=0.667;exitY=0.053;exitDx=0;exitDy=0;exitPerimeter=0;entryX=0.655;entryY=1.039;entryDx=0;entryDy=0;entryPerimeter=0;" edge="1" parent="1">
          <mxGeometry width="50" height="50" relative="1" as="geometry">
            <mxPoint x="742.2745327501955" y="228.81041325911838" as="sourcePoint" />
            <mxPoint x="763.3999999999999" y="220.42900000000003" as="targetPoint" />
            <Array as="points">
              <mxPoint x="763" y="229" />
            </Array>
          </mxGeometry>
        </mxCell>
      </root>
    </mxGraphModel>
  </diagram>
</mxfile>
